#!OML:ASF H:\ColoradoDance\Project 1\Capture day 1\Session 8\male.ASF
:FULLY-SPECIFIED
:DEGREES
167
upperback -3.365370 0.591331 -0.393191
rfoot -18.943899 -17.630199
lradius 25.632500
lthumb 11.841400 46.910301
rradius 35.148899
lwrist -13.598700
rhand -38.820801 -0.476060
rhumerus -50.003899 -11.741900 -74.268402
lowerneck -4.594320 4.808610 7.740480
lhand -14.298300 17.265100
ltibia 29.204700
head 2.864050 3.107330 -3.330720
rwrist 8.646100
lfingers 7.125020
rtoes -14.962200
lowerback -0.799779 0.431447 -0.833676
rfingers 7.125020
lclavicle 0.000000 0.000000
upperneck 5.437070 6.418240 -7.762990
rfemur -18.458500 -0.121071 10.198500
thorax -3.009470 0.326334 0.051509
rclavicle 0.000000 0.000000
rtibia 50.107399
lfoot -16.078800 4.426760
lhumerus -46.376099 11.957900 62.939098
rthumb -11.830900 -390.122009
root -2.003880 19.294500 14.531400 1989.599976 -247.647995 -536.955994
ltoes 5.265530
lfemur -15.518300 0.978427 -24.344700
168
upperback -2.853820 -0.614047 -0.725019
rfoot -19.978800 -16.896099
lradius 23.915001
lthumb 8.104480 53.666401
rradius 39.063900
lwrist -15.533200
rhand -46.228600 1.601030
rhumerus -49.125900 -8.860180 -77.234703
lowerneck -4.843910 4.584820 7.697580
lhand -18.171801 23.841801
ltibia 22.953600
head 2.641820 2.932230 -3.769240
rwrist 8.590370
lfingers 7.125020
rtoes -8.526520
lowerback -1.309970 -0.471425 -2.493240
rfingers 7.125020
lclavicle 0.000000 0.000000
upperneck 4.476240 6.149280 -9.171780
rfemur -40.308800 8.287850 8.767660
thorax -2.174920 -0.249539 0.655888
rclavicle 0.000000 0.000000
rtibia 35.271301
lfoot -20.139000 0.966582
lhumerus -45.898899 11.640300 61.840099
rthumb -18.965599 -387.493988
root 0.499566 19.043800 15.063500 1997.439941 -250.063004 -529.879028
ltoes 3.291020
lfemur -5.100940 1.491170 -27.622101
169
upperback -2.792800 -1.222730 -0.470935
rfoot -17.552500 -12.901700
lradius 22.430500
lthumb 5.754330 55.027199
rradius 34.906601
lwrist -15.389200
rhand -45.125599 -12.361500
rhumerus -47.616699 -2.717070 -79.707802
lowerneck -6.238750 0.769792 5.007370
lhand -20.606400 25.125299
ltibia 12.810800
head 2.716320 0.424607 -3.717670
rwrist 6.897840
lfingers 7.125020
rtoes -19.870800
lowerback -1.059830 -0.925998 -5.942650
rfingers 7.125020
lclavicle -0.000000 0.000000
upperneck 5.399750 1.299810 -9.758840
rfemur -41.858799 18.839399 -2.148250
thorax -2.172380 -0.473002 2.851920
rclavicle -0.000000 0.000000
rtibia 30.467400
lfoot -16.215599 -12.531400
lhumerus -49.810200 14.798900 60.328400
rthumb -17.904499 -401.557007
root 3.422910 18.691601 16.198700 2071.250000 -263.614014 -455.572998
ltoes -2.227420
lfemur 9.609580 -4.747800 -24.451099
170
upperback -3.798200 -0.512391 0.736168
rfoot -11.126300 -26.798401
lradius 26.240700
lthumb 11.794600 54.534100
rradius 27.582500
lwrist -14.212600
rhand -40.083099 -15.861800
rhumerus -49.470798 -1.432860 -83.724701
lowerneck -2.809140 3.108620 5.931530
lhand -14.346900 24.886200
ltibia 23.134001
head 2.421440 2.163040 -3.927730
rwrist 14.362300
lfingers 7.125020
rtoes -1.791320
lowerback -0.132193 -0.472975 0.432339
rfingers 7.125020
lclavicle 0.000000 0.000000
upperneck 4.711350 4.462430 -9.026050
rfemur -26.041201 -4.580600 17.270000
thorax -3.828040 -0.218915 0.529419
rclavicle 0.000000 0.000000
rtibia 33.101501
lfoot -4.487710 17.238800
lhumerus -43.320000 7.325140 63.908798
rthumb -13.047900 -405.433990
root 6.695890 19.243299 17.754200 2168.489990 -228.697998 -357.678986
ltoes -7.332510
lfemur 2.569810 -10.185500 -4.597460
171
upperback -4.141020 -1.057980 0.554662
rfoot -28.463100 -34.346500
lradius 38.050900
lthumb 3.604370 55.028099
rradius 27.758101
lwrist -7.033320
rhand -33.966301 -3.821430
rhumerus -53.320801 -0.772100 -76.494400
lowerneck -3.929170 0.229146 4.065790
lhand -22.833000 25.078899
ltibia 39.169601
head 2.097300 0.115859 -1.798020
rwrist 10.176700
lfingers 7.125020
rtoes -3.174000
lowerback 0.765498 -0.929177 0.599151
rfingers 7.125020
lclavicle 0.000000 0.000000
upperneck 4.431530 0.256537 -3.444530
rfemur -20.376900 -7.409040 24.211000
thorax -4.698620 -0.475995 0.283241
rclavicle 0.000000 0.000000
rtibia 33.953800
lfoot -23.891199 19.838301
lhumerus -37.249699 -2.557550 73.087196
rthumb -7.147060 -393.681000
root 8.854020 19.439100 18.810101 2170.389893 -187.587006 -357.029999
ltoes 13.697000
lfemur -22.723801 14.275100 -14.024800
172
upperback -4.784420 -1.077440 0.410157
rfoot -38.652302 -38.577801
lradius 33.189098
lthumb 3.251410 56.828701
rradius 24.695999
lwrist -7.561080
rhand -32.759602 -0.657839
rhumerus -50.511002 -3.061590 -67.644203
lowerneck -4.982930 -3.203690 1.600540
lhand -23.198500 26.873699
ltibia 36.844501
head 2.280090 -2.176430 -1.073620
rwrist 13.070900
lfingers 7.125020
rtoes 7.698420
lowerback 0.622932 -0.677259 0.149225
rfingers 7.125020
lclavicle -0.000000 -0.000000
upperneck 4.773110 -4.296370 -2.051630
rfemur -21.944700 -5.868220 24.799500
thorax -5.285090 -0.614788 0.404578
rclavicle -0.000000 -0.000000
rtibia 35.775799
lfoot -23.896999 20.071600
lhumerus -40.156799 0.740904 72.884697
rthumb -5.982130 -390.553009
root 9.442250 19.160299 19.268101 2171.280029 -170.352005 -358.778992
ltoes 5.197980
lfemur -24.032900 4.078530 -21.466700
173
upperback -4.461240 -0.345450 0.187745
rfoot -36.814098 -37.701199
lradius 21.352301
lthumb 2.765640 56.560799
rradius 32.637100
lwrist -17.005400
rhand -31.495501 3.162820
rhumerus -43.876801 -3.303400 -77.093201
lowerneck -4.901780 -2.605190 1.625690
lhand -23.701500 26.599001
ltibia 35.486198
head 2.519950 -1.792810 -1.309730
rwrist 4.421670
lfingers 7.125020
rtoes 7.341690
lowerback 1.009390 -0.150026 0.263461
rfingers 7.125020
lclavicle -0.000000 -0.000000
upperneck 5.520770 -3.463220 -2.817790
rfemur -21.034700 -3.414700 23.390400
thorax -5.171830 -0.247885 0.071875
rclavicle -0.000000 -0.000000
rtibia 37.242401
lfoot -27.329700 23.238001
lhumerus -44.590000 8.575670 70.012398
rthumb -4.761600 -386.764008
root 9.308740 19.059999 19.627399 2169.229980 -172.186005 -358.931000
ltoes 10.910200
lfemur -21.393600 -1.208290 -21.559601
174
upperback -4.132050 0.137515 -0.188861
rfoot -34.579700 -34.019100
lradius 24.324699
lthumb 2.151480 56.351700
rradius 32.455101
lwrist -12.944800
rhand -31.938700 0.386646
rhumerus -41.869701 0.377614 -91.011703
lowerneck -5.211710 -1.972180 2.059370
lhand -24.337400 26.382799
ltibia 35.279900
head 2.975810 -1.393750 -1.426490
rwrist 6.068130
lfingers 7.125020
rtoes 9.633090
lowerback 0.283952 0.227528 -0.168658
rfingers 7.125020
lclavicle -0.000000 -0.000000
upperneck 6.653450 -2.648340 -2.944670
rfemur -19.949800 -2.714050 22.140699
thorax -4.414000 0.004433 -0.100818
rclavicle -0.000000 -0.000000
rtibia 38.011200
lfoot -27.599501 21.839399
lhumerus -44.756199 2.893680 80.276199
rthumb -5.189530 -389.529999
root 9.184910 19.025700 19.858801 2167.280029 -176.240005 -359.127014
ltoes 13.150500
lfemur -19.479401 2.845180 -22.586700
175
upperback -4.063980 0.084326 -0.232516
rfoot -33.472198 -31.780701
lradius 33.063400
lthumb -0.995118 57.499901
rradius 25.351801
lwrist -7.882090
rhand -32.075802 -0.536342
rhumerus -41.342499 3.479750 -93.751198
lowerneck -5.756050 -1.523170 2.013550
lhand -27.595400 27.522499
ltibia 35.296200
head 3.132380 -1.089950 -1.194420
rwrist 8.110430
lfingers 7.125020
rtoes 10.452800
lowerback 0.013667 0.196447 -0.494390
rfingers 7.125020
lclavicle -0.000000 0.000000
upperneck 6.747560 -2.086900 -2.296250
rfemur -19.766899 -2.089900 22.139200
thorax -4.190570 -0.012768 0.039184
rclavicle -0.000000 0.000000
rtibia 38.026001
lfoot -27.261200 20.996000
lhumerus -40.328201 -3.740550 84.412201
rthumb -5.321890 -390.450012
root 9.186980 19.021099 20.077801 2166.419922 -178.220993 -358.891998
ltoes 14.894100
lfemur -19.164301 4.974250 -22.416100
